name rise49.25peak52.1432fall72.8391.mot
datacolumns 19
datarows 32
range 4.52165200000000 4.57331300000000
endheader
time	ground_force1_vx	ground_force1_vy	ground_force1_vz	ground_force1_px	ground_force1_py	ground_force1_pz	ground_force2_vx	ground_force2_vy	ground_force2_vz	ground_force2_px	ground_force2_py	ground_force2_pz	ground_torque1_x	ground_torque1_y	ground_torque1_z	ground_torque2_x	ground_torque2_y	ground_torque2_z	
4.52165200000000	-37.06065900000000	804.55802700000004	49.85065200000000	0.12505800000000	0.00000000000000	0.07941600000000	-8.16749300000000	53.17644400000000	5.83712200000000	0.35889800000000	0.00000000000000	-0.09861500000000	0.00000000000000	17.98954100000000	0.00000000000000	0.00000000000000	2.71556600000000	0.00000000000000	
4.52331900000000	-37.66456200000000	803.40418899999997	49.74784400000000	0.12425400000000	0.00000000000000	0.07931100000000	-8.64276300000000	59.44513200000000	6.34057400000000	0.36334500000000	0.00000000000000	-0.09868300000000	0.00000000000000	17.91539000000000	0.00000000000000	0.00000000000000	3.03178700000000	0.00000000000000	
4.52497700000000	-38.28202000000000	802.12328800000000	49.62496400000000	0.12346000000000	0.00000000000000	0.07920400000000	-8.97681000000000	65.50731399999999	6.77742800000000	0.36743500000000	0.00000000000000	-0.09875500000000	0.00000000000000	17.83975500000000	0.00000000000000	0.00000000000000	3.32989100000000	0.00000000000000	
4.52666100000000	-38.91323800000000	800.71326399999998	49.48169200000000	0.12267500000000	0.00000000000000	0.07909300000000	-9.16607000000000	71.32310300000000	7.14333900000000	0.37119900000000	0.00000000000000	-0.09883100000000	0.00000000000000	17.76268000000000	0.00000000000000	0.00000000000000	3.60620700000000	0.00000000000000	
4.52831700000000	-39.55837400000000	799.17216099999996	49.31774000000000	0.12189800000000	0.00000000000000	0.07897900000000	-9.21345400000000	76.87909600000000	7.43771900000000	0.37466700000000	0.00000000000000	-0.09891200000000	0.00000000000000	17.68421000000000	0.00000000000000	0.00000000000000	3.85867500000000	0.00000000000000	
4.52998200000000	-40.21753900000000	797.49812499999996	49.13285100000000	0.12112900000000	0.00000000000000	0.07886200000000	-9.12727100000000	82.18545800000000	7.66321200000000	0.37786300000000	0.00000000000000	-0.09899800000000	0.00000000000000	17.60438700000000	0.00000000000000	0.00000000000000	4.08671800000000	0.00000000000000	
4.53164400000000	-40.89079200000000	795.68939799999998	48.92680500000000	0.12036500000000	0.00000000000000	0.07874300000000	-8.91990500000000	87.27157800000001	7.82499100000000	0.38080800000000	0.00000000000000	-0.09908900000000	0.00000000000000	17.52325600000000	0.00000000000000	0.00000000000000	4.29100800000000	0.00000000000000	
4.53331900000000	-41.57813600000000	793.74432200000001	48.69941800000000	0.11960700000000	0.00000000000000	0.07862000000000	-8.60637600000000	92.18089000000001	7.92997200000000	0.38352100000000	0.00000000000000	-0.09918500000000	0.00000000000000	17.44085700000000	0.00000000000000	0.00000000000000	4.47317500000000	0.00000000000000	
4.53498300000000	-42.27951600000000	791.66133500000001	48.45054100000000	0.11885300000000	0.00000000000000	0.07849500000000	-8.20293900000000	96.96543699999999	7.98601600000000	0.38601800000000	0.00000000000000	-0.09928500000000	0.00000000000000	17.35723300000000	0.00000000000000	0.00000000000000	4.63548300000000	0.00000000000000	
4.53664400000000	-42.99481500000000	789.43897000000004	48.18006600000000	0.11810200000000	0.00000000000000	0.07836600000000	-7.72581600000000	101.68066899999999	8.00120200000000	0.38831300000000	0.00000000000000	-0.09939200000000	0.00000000000000	17.27242400000000	0.00000000000000	0.00000000000000	4.78050800000000	0.00000000000000	
4.53831200000000	-43.72385300000000	787.07585099999994	47.88791900000000	0.11735300000000	0.00000000000000	0.07823600000000	-7.19014900000000	106.38084100000000	7.98319200000000	0.39042000000000	0.00000000000000	-0.09950300000000	0.00000000000000	17.18647100000000	0.00000000000000	0.00000000000000	4.91085300000000	0.00000000000000	
4.53998600000000	-44.46638400000000	784.57069600000000	47.57407000000000	0.11660600000000	0.00000000000000	0.07810200000000	-6.60921300000000	111.11527800000000	7.93875200000000	0.39235100000000	0.00000000000000	-0.09961900000000	0.00000000000000	17.09941400000000	0.00000000000000	0.00000000000000	5.02890600000000	0.00000000000000	
4.54165000000000	-45.22209000000000	781.92231000000004	47.23852400000000	0.11585800000000	0.00000000000000	0.07796700000000	-5.99390300000000	115.92564000000000	7.87341300000000	0.39411400000000	0.00000000000000	-0.09974000000000	0.00000000000000	17.01129000000000	0.00000000000000	0.00000000000000	5.13666200000000	0.00000000000000	
4.54331700000000	-45.99058500000000	779.12958500000002	46.88133100000000	0.11511000000000	0.00000000000000	0.07782800000000	-5.35249100000000	120.84421500000001	7.79128800000000	0.39572100000000	0.00000000000000	-0.09986700000000	0.00000000000000	16.92213900000000	0.00000000000000	0.00000000000000	5.23560500000000	0.00000000000000	
4.54498300000000	-46.77140500000000	776.19150000000002	46.50257800000000	0.11436000000000	0.00000000000000	0.07768800000000	-4.69061800000000	125.89319399999999	7.69502900000000	0.39718000000000	0.00000000000000	-0.09999800000000	0.00000000000000	16.83199800000000	0.00000000000000	0.00000000000000	5.32665800000000	0.00000000000000	
4.54666200000000	-47.56401500000000	773.10711700000002	46.10239600000000	0.11360600000000	0.00000000000000	0.07754500000000	-4.01148200000000	131.08479700000001	7.58589600000000	0.39849900000000	0.00000000000000	-0.10013300000000	0.00000000000000	16.74090400000000	0.00000000000000	0.00000000000000	5.41018000000000	0.00000000000000	
4.54831700000000	-48.36779800000000	769.87557900000002	45.68095300000000	0.11284900000000	0.00000000000000	0.07740100000000	-3.31617100000000	136.42209099999999	7.46392300000000	0.39968500000000	0.00000000000000	-0.10027400000000	0.00000000000000	16.64889300000000	0.00000000000000	0.00000000000000	5.48601800000000	0.00000000000000	
4.55000200000000	-49.18206400000000	766.49611200000004	45.23846300000000	0.11208600000000	0.00000000000000	0.07725400000000	-2.60409100000000	141.90030899999999	7.32814000000000	0.40074500000000	0.00000000000000	-0.10041800000000	0.00000000000000	16.55600000000000	0.00000000000000	0.00000000000000	5.55358000000000	0.00000000000000	
4.55164600000000	-50.00603700000000	762.96802100000002	44.77517600000000	0.11131800000000	0.00000000000000	0.07710600000000	-1.87343800000000	147.50847600000000	7.17683200000000	0.40168600000000	0.00000000000000	-0.10056700000000	0.00000000000000	16.46225900000000	0.00000000000000	0.00000000000000	5.61194300000000	0.00000000000000	
4.55331900000000	-50.83886600000000	759.29068700000005	44.29138600000000	0.11054200000000	0.00000000000000	0.07695500000000	-1.12166500000000	153.23117099999999	7.00780500000000	0.40251300000000	0.00000000000000	-0.10072000000000	0.00000000000000	16.36770300000000	0.00000000000000	0.00000000000000	5.65995700000000	0.00000000000000	
4.55498500000000	-51.67961600000000	755.46357000000000	43.78742600000000	0.10975900000000	0.00000000000000	0.07680400000000	-0.34592800000000	159.05026500000000	6.81863700000000	0.40323100000000	0.00000000000000	-0.10087700000000	0.00000000000000	16.27236400000000	0.00000000000000	0.00000000000000	5.69635900000000	0.00000000000000	
4.55664400000000	-52.52727100000000	751.48620800000003	43.26366900000000	0.10896700000000	0.00000000000000	0.07665000000000	0.45654400000000	164.94651400000001	6.60691100000000	0.40384600000000	0.00000000000000	-0.10103700000000	0.00000000000000	16.17627200000000	0.00000000000000	0.00000000000000	5.71987000000000	0.00000000000000	
4.55831200000000	-53.38073500000000	747.35821299999998	42.72052500000000	0.10816500000000	0.00000000000000	0.07649600000000	1.28814200000000	170.90091699999999	6.37039200000000	0.40436400000000	0.00000000000000	-0.10120000000000	0.00000000000000	16.07945500000000	0.00000000000000	0.00000000000000	5.72928400000000	0.00000000000000	
4.55997900000000	-54.23883100000000	743.07927099999995	42.15844500000000	0.10735400000000	0.00000000000000	0.07634000000000	2.15066500000000	176.89578599999999	6.10716900000000	0.40478700000000	0.00000000000000	-0.10136700000000	0.00000000000000	15.98194000000000	0.00000000000000	0.00000000000000	5.72353400000000	0.00000000000000	
4.56164900000000	-55.10030100000000	738.64914599999997	41.57791500000000	0.10653100000000	0.00000000000000	0.07618300000000	3.04518400000000	182.91550699999999	5.81575100000000	0.40512200000000	0.00000000000000	-0.10153700000000	0.00000000000000	15.88375100000000	0.00000000000000	0.00000000000000	5.70173800000000	0.00000000000000	
4.56331900000000	-55.96381100000000	734.06767600000001	40.97946000000000	0.10569700000000	0.00000000000000	0.07602600000000	3.97199300000000	188.94699700000001	5.49510800000000	0.40537200000000	0.00000000000000	-0.10171000000000	0.00000000000000	15.78490900000000	0.00000000000000	0.00000000000000	5.66323000000000	0.00000000000000	
4.56498100000000	-56.82795000000000	729.33477300000004	40.36363800000000	0.10485100000000	0.00000000000000	0.07586700000000	4.93061400000000	194.97988100000001	5.14468600000000	0.40554100000000	0.00000000000000	-0.10188400000000	0.00000000000000	15.68543300000000	0.00000000000000	0.00000000000000	5.60756700000000	0.00000000000000	
4.56665200000000	-57.69123000000000	724.45042899999999	39.73104100000000	0.10399200000000	0.00000000000000	0.07570800000000	5.91987000000000	201.00644299999999	4.76437900000000	0.40563300000000	0.00000000000000	-0.10206200000000	0.00000000000000	15.58533800000000	0.00000000000000	0.00000000000000	5.53452700000000	0.00000000000000	
4.56831200000000	-58.55209200000000	719.41470900000002	39.08229500000000	0.10311900000000	0.00000000000000	0.07554800000000	6.93798100000000	207.02138600000001	4.35448300000000	0.40565100000000	0.00000000000000	-0.10224100000000	0.00000000000000	15.48463600000000	0.00000000000000	0.00000000000000	5.44408600000000	0.00000000000000	
4.56998500000000	-59.40890900000000	714.22776099999999	38.41805800000000	0.10223400000000	0.00000000000000	0.07538800000000	7.98269800000000	213.02147099999999	3.91563400000000	0.40560000000000	0.00000000000000	-0.10242200000000	0.00000000000000	15.38333400000000	0.00000000000000	0.00000000000000	5.33640300000000	0.00000000000000	
4.57164600000000	-60.25998600000000	708.88981100000001	37.73901600000000	0.10133400000000	0.00000000000000	0.07522700000000	9.05143100000000	219.00508700000000	3.44873100000000	0.40548200000000	0.00000000000000	-0.10260400000000	0.00000000000000	15.28143600000000	0.00000000000000	0.00000000000000	5.21178000000000	0.00000000000000	
4.57331300000000	-61.10356500000000	703.40117299999997	37.04588500000000	0.10042000000000	0.00000000000000	0.07506700000000	10.14138400000000	224.97178600000001	2.95487100000000	0.40530100000000	0.00000000000000	-0.10278800000000	0.00000000000000	15.17894100000000	0.00000000000000	0.00000000000000	5.07063900000000	0.00000000000000	
